<svg width="32" height="32" viewBox="0 0 32 32" fill="none" xmlns="http://www.w3.org/2000/svg">
<path d="M0 16C0 7.16344 7.16344 0 16 0V0C24.8366 0 32 7.16344 32 16V16C32 24.8366 24.8366 32 16 32V32C7.16344 32 0 24.8366 0 16V16Z" fill="#F6F6F6"/>
<path d="M14.0977 21.1113C14.4427 21.1113 14.6152 21.2578 14.6152 21.5508C14.6152 21.668 14.5436 21.7721 14.4004 21.8633C14.2637 21.9544 14.0163 22 13.6582 22H5.72852V8.18164H10.709V21.3555H12.5352C12.9453 21.3555 13.2969 21.3164 13.5898 21.2383C13.8893 21.1536 14.0586 21.1113 14.0977 21.1113ZM16.4902 8.18164C18.248 8.18164 19.6445 8.18164 20.6797 8.18164C21.7214 8.18164 22.3529 8.1849 22.5742 8.19141C23.5378 8.23698 24.2181 8.35091 24.6152 8.5332C25.0124 8.70898 25.3281 8.90755 25.5625 9.12891C26.0638 9.6237 26.3145 10.2227 26.3145 10.9258C26.3145 11.6224 26.0703 12.2344 25.582 12.7617C25.4323 12.9245 25.2598 13.0645 25.0645 13.1816C26.1257 13.377 26.9948 13.8229 27.6719 14.5195C28.4076 15.2747 28.7754 16.196 28.7754 17.2832C28.7754 18.39 28.4336 19.3438 27.75 20.1445C26.793 21.2513 25.3151 21.8568 23.3164 21.9609C22.8086 21.987 22.3073 22 21.8125 22H16.4902V8.18164ZM22.8965 12.9863L23.3945 13.0449H23.5508C24.0651 13.0449 24.5111 12.8561 24.8887 12.4785C25.2923 12.0749 25.4941 11.5801 25.4941 10.9941C25.4941 10.278 25.1849 9.72786 24.5664 9.34375C24.2539 9.14844 23.9414 9.03451 23.6289 9.00195C23.3229 8.96289 23.082 8.93685 22.9062 8.92383C22.5417 8.89779 22.0632 8.88477 21.4707 8.88477V21.2773H22.5547C23.6615 21.2773 24.5632 21.1406 25.2598 20.8672C26.0931 20.5807 26.7539 20.1185 27.2422 19.4805C27.7044 18.875 27.9355 18.2402 27.9355 17.5762C27.9355 16.9121 27.8379 16.3522 27.6426 15.8965C27.4473 15.4408 27.1641 15.0534 26.793 14.7344C26.0378 14.0768 24.9863 13.748 23.6387 13.748L22.9648 13.8066C22.7565 13.8066 22.6035 13.7643 22.5059 13.6797C22.4082 13.5951 22.3594 13.4974 22.3594 13.3867C22.3594 13.1198 22.5384 12.9863 22.8965 12.9863Z" fill="#333333"/>
</svg>
